<svg width="818" height="661" viewBox="0 0 818 661" fill="none" xmlns="http://www.w3.org/2000/svg">
<path d="M118.396 202.347C120.496 190.997 118.341 181.08 113.583 180.197C108.824 179.314 103.264 187.799 101.164 199.148C99.0631 210.498 101.218 220.415 105.976 221.298C110.735 222.181 116.295 213.697 118.396 202.347Z" fill="#FFAB8C"/>
<path d="M169.324 207.848L112.467 191.905L119.022 168.526C120.828 162.162 127.383 158.477 133.671 160.286L167.585 169.799C173.939 171.607 177.618 178.172 175.812 184.469L169.257 207.915L169.324 207.848Z" fill="#369CD9"/>
<path d="M141.965 183.866C134.34 188.756 129.658 195.924 131.464 199.944C133.27 203.963 140.828 203.293 148.454 198.403C156.079 193.513 160.762 186.345 158.956 182.326C157.15 178.306 149.591 178.976 141.965 183.866Z" fill="#FFAB8C"/>
<path d="M156.893 207.622C171.058 206.331 182.188 201.402 181.752 196.612C181.317 191.822 169.482 188.986 155.317 190.277C141.153 191.568 130.023 196.497 130.458 201.287C130.894 206.077 142.729 208.913 156.893 207.622Z" fill="#FFAB8C"/>
<path d="M183.366 218.418C184.762 213.816 174.862 206.729 161.253 202.588C147.644 198.447 135.481 198.821 134.085 203.423C132.688 208.025 142.589 215.112 156.197 219.253C169.806 223.393 181.97 223.02 183.366 218.418Z" fill="#FFAB8C"/>
<path d="M37.415 467.765C46.8466 466.962 55.2079 463.88 55.2079 463.88L72.4658 357.971L73.8036 349.53L75.0745 341.893C74.8738 342.027 74.0043 342.697 72.6664 343.836C71.9306 344.439 70.9942 345.243 69.9908 346.18C58.2849 356.698 29.6556 385.704 15.341 429.515C4.03645 464.148 22.097 468.971 37.4819 467.698L37.415 467.765Z" fill="#76BDF2"/>
<path d="M28.6526 657.143L28.5857 654.263L28.2512 622.644L157.217 620.768L160.093 620.701H162.902V620.768L163.304 660.961H28.6526V657.143Z" fill="#369CD9"/>
<path d="M139.089 622.041H137.016V648.233H139.089V622.041Z" fill="#247CA3"/>
<path d="M149.792 650.109H151.732L151.531 660.961H149.591L149.792 650.109Z" fill="#247CA3"/>
<path d="M157.217 620.768V620.701H160.093L162.903 620.768L293.875 622.644L298.958 660.225L299.092 660.961H162.836L157.217 620.768Z" fill="#369CD9"/>
<path d="M294.008 622.644H28.2512C28.2512 622.644 26.3114 566.239 33.3349 499.987C34.4721 489.403 35.8099 478.617 37.4153 467.765C43.703 425.83 53.9373 383.024 70.7269 349.865C71.4627 348.458 72.1985 346.984 73.0012 345.577C73.6701 344.372 74.339 343.099 75.0079 341.893C83.503 326.888 93.6035 314.294 105.51 305.317C106.781 304.312 108.119 303.374 109.457 302.504C109.59 302.437 109.724 302.303 109.858 302.236C112.266 300.628 114.808 299.221 117.35 297.881H160.829C165.913 299.623 170.796 302.169 175.612 305.384C176.414 305.92 177.217 306.523 178.087 307.126C179.157 307.93 180.294 308.734 181.364 309.671C183.906 311.681 186.381 313.892 188.856 316.303C189.592 317.04 190.328 317.777 191.063 318.581C206.381 334.524 219.827 357.501 231.532 383.761C252.269 430.251 267.453 487.058 277.62 533.615C288.724 584.192 293.875 622.711 293.875 622.711L294.008 622.644Z" fill="#76BDF2"/>
<g style="mix-blend-mode:multiply" opacity="0.3">
<path d="M58.5527 392.537L85.7773 356.162L93.336 400.91L58.5527 392.537Z" fill="#A35A5F"/>
</g>
<path d="M159.057 513.935L115.874 557.182L117.813 559.124L160.997 515.877L159.057 513.935Z" fill="#369CD9"/>
<g style="mix-blend-mode:multiply" opacity="0.3">
<path d="M277.687 533.548C259.827 540.984 236.616 546.075 208.321 542.86C135.21 534.62 33.335 499.987 33.335 499.987L231.599 383.694C252.336 430.184 267.52 486.991 277.687 533.548V533.548Z" fill="#A35A5F"/>
</g>
<path d="M181.431 309.671L107.918 371.904L105.644 305.384C106.915 304.379 108.253 303.441 109.59 302.57L111.731 363.463L178.22 307.193C179.291 307.997 180.428 308.8 181.498 309.738L181.431 309.671Z" fill="#369CD9"/>
<path d="M147.317 413.236C146.447 413.236 145.645 413.169 144.775 412.968C141.297 412.298 138.22 410.289 136.28 407.341C134.273 404.394 133.537 400.843 134.206 397.36L143.571 348.324C144.775 342.027 150.26 337.472 156.682 337.472C163.103 337.472 158.354 337.539 159.223 337.74C166.448 339.146 171.197 346.113 169.792 353.348L160.428 402.384C159.223 408.681 153.738 413.236 147.317 413.236V413.236ZM156.615 342.362C152.534 342.362 149.056 345.242 148.32 349.262L138.956 398.298C138.554 400.508 138.956 402.786 140.293 404.662C141.564 406.537 143.504 407.81 145.712 408.212C146.247 408.346 146.782 408.346 147.317 408.346C151.397 408.346 154.876 405.465 155.611 401.446L164.976 352.41C165.846 347.788 162.836 343.367 158.22 342.496C157.685 342.362 157.15 342.362 156.615 342.362V342.362Z" fill="#6B6170"/>
<path d="M145.979 410.758C145.511 413.169 143.17 414.71 140.828 414.308C138.42 413.839 136.882 411.495 137.283 409.15C137.751 406.738 140.093 405.198 142.434 405.6C144.775 406.002 146.38 408.413 145.979 410.758Z" fill="#332938"/>
<path d="M153.27 412.164C152.802 414.576 150.461 416.117 148.12 415.715C145.712 415.246 144.173 412.901 144.575 410.557C145.043 408.145 147.384 406.604 149.725 407.006C152.066 407.408 153.672 409.82 153.27 412.164Z" fill="#332938"/>
<path d="M43.6362 432.73H171.799L174.608 504.408L43.6362 505.011V432.73Z" fill="#332938"/>
<path d="M83.1432 471.054C107.194 463.919 120.916 438.609 113.792 414.523C106.668 390.437 81.3951 376.694 57.3439 383.829C33.2927 390.964 19.5708 416.274 26.6951 440.36C33.8194 464.447 59.0921 478.189 83.1432 471.054Z" fill="#FF7361"/>
<path d="M50.1912 504.207L189.592 460.664L166.581 386.776L27.1808 430.318C6.77907 436.682 -4.59237 458.387 1.76226 478.818C8.11689 499.25 29.7895 510.638 50.1912 504.274V504.207Z" fill="#FF7361"/>
<path d="M43.636 424.557L104.373 498.044L143.103 477.545L43.636 424.557Z" fill="#332938"/>
<path d="M190.262 467.354C211.672 460.676 222.572 434.502 214.607 408.893C206.642 383.283 182.829 367.936 161.419 374.615C140.01 381.293 129.11 407.467 137.075 433.076C145.04 458.686 168.853 474.032 190.262 467.354Z" fill="#FF7361"/>
<path d="M165.311 416.653L179.692 368.957L175.01 367.617L160.628 415.313L165.311 416.653Z" fill="#369CD9"/>
<path d="M228.188 479.354C222.168 496.302 192.669 506.284 173.003 495.499C153.337 484.646 146.113 459.927 156.882 440.233L192.468 319.988C259.694 383.761 234.208 462.406 228.188 479.354Z" fill="#76BDF2"/>
<path d="M45.7574 423.865L22.5637 431.502L23.5457 434.493L46.7394 426.856L45.7574 423.865Z" fill="#332938"/>
<path d="M117.483 297.948L121.764 311.413L160.962 297.948V247.305H117.483V297.948Z" fill="#FF7361"/>
<path d="M117.483 297.948L118.554 343.635L164.106 299.154L137.551 287.565L117.483 297.948Z" fill="#FF7361"/>
<path d="M117.483 278.32L144.24 275.038L117.483 291.383V278.32Z" fill="#332938"/>
<path d="M116.747 282.072L159.424 274.636V229.084C159.424 212.404 145.31 198.939 127.851 198.939C110.46 198.939 96.2788 212.404 96.2788 229.084V264.99C96.2788 277.45 105.042 284.283 116.681 282.072H116.747Z" fill="#FF7361"/>
<path d="M111.329 253.535C110.727 253.535 110.058 253.267 109.523 252.731C108.854 252.128 108.587 251.257 108.654 250.386V247.305H111.129V250.922C111.196 250.922 111.329 250.922 111.329 250.922H111.664C111.664 250.989 117.483 250.989 117.483 250.989V253.468H111.597C111.463 253.468 111.396 253.468 111.263 253.468L111.329 253.535Z" fill="#332938"/>
<path d="M167.785 200.881H144.574V238.529H167.785V200.881Z" fill="#FFAB8C"/>
<path d="M96.279 237.189V253.669C96.881 253.87 97.4831 253.937 98.152 253.937C102.299 253.937 105.644 250.118 105.644 245.429C105.644 240.74 102.299 236.921 98.152 236.921C94.0047 236.921 96.881 237.055 96.279 237.189Z" fill="#C74E4A"/>
<path d="M141.967 252.116C145.493 248.584 145.493 242.858 141.967 239.327C138.44 235.795 132.722 235.795 129.196 239.327C125.669 242.858 125.669 248.584 129.196 252.116C132.722 255.648 138.44 255.648 141.967 252.116Z" fill="#C74E4A"/>
<path d="M129.39 240.606C130.979 240.606 132.266 239.316 132.266 237.726C132.266 236.135 130.979 234.845 129.39 234.845C127.801 234.845 126.514 236.135 126.514 237.726C126.514 239.316 127.801 240.606 129.39 240.606Z" fill="#332938"/>
<path d="M104.506 240.606C106.095 240.606 107.383 239.316 107.383 237.725C107.383 236.135 106.095 234.845 104.506 234.845C102.918 234.845 101.63 236.135 101.63 237.725C101.63 239.316 102.918 240.606 104.506 240.606Z" fill="#332938"/>
<path d="M117.216 265.325C122.3 265.325 127.116 259.564 127.316 259.363L125.778 258.09C125.778 258.09 121.229 263.449 116.948 263.382V265.325C116.948 265.325 117.082 265.325 117.149 265.325H117.216Z" fill="#332938"/>
<path d="M167.726 260.529C175.567 259.258 180.893 251.861 179.623 244.009C178.353 236.157 170.968 230.823 163.127 232.095C155.287 233.366 149.96 240.763 151.23 248.615C152.5 256.467 159.886 261.801 167.726 260.529Z" fill="#FF7361"/>
<g style="mix-blend-mode:multiply" opacity="0.3">
<path d="M170.729 239.065L157.819 256.08C157.819 256.08 180.428 262.042 170.729 239.065Z" fill="#A35A5F"/>
</g>
<g style="mix-blend-mode:multiply" opacity="0.3">
<path d="M111.463 646.894H161.029L163.036 660.961H114.406L111.463 646.894Z" fill="#A35A5F"/>
</g>
<path d="M131.463 646.894H161.029L163.036 660.961H159.624L131.463 646.894Z" fill="#332938"/>
<path d="M161.966 499.987L43.636 424.558C43.636 424.558 73.67 390.125 97.6169 392.671L201.097 428.51C220.763 439.362 227.987 464.081 217.218 483.776C206.381 503.47 181.699 510.705 162.033 499.92L161.966 499.987Z" fill="#FF7361"/>
<path d="M164.106 415.782L120.493 401.178L134.607 396.824L164.106 415.782Z" fill="#332938"/>
<path d="M294.008 622.644H28.2512L296.015 637.582L294.008 622.644Z" fill="#332938"/>
<path d="M140.397 554.385L111.45 583.375L113.389 585.317L142.336 556.327L140.397 554.385Z" fill="#369CD9"/>
<path d="M117.483 288.369V296.207C108.921 307.796 94.8742 333.386 95.7438 375.388L90.9276 375.522C89.8574 324.677 109.59 297.279 117.483 288.436V288.369Z" fill="#6B6170"/>
<path d="M93.3358 386.374C99.3944 386.374 104.306 381.455 104.306 375.388C104.306 369.32 99.3944 364.401 93.3358 364.401C87.2772 364.401 82.3657 369.32 82.3657 375.388C82.3657 381.455 87.2772 386.374 93.3358 386.374Z" fill="#332938"/>
<path d="M170.662 307.461C169.658 325.816 161.163 340.754 160.762 341.357L156.548 338.946C156.614 338.812 164.775 324.409 165.779 307.193C166.314 297.346 163.705 291.719 160.962 288.57V282.139C165.377 285.087 171.464 292.053 170.662 307.461Z" fill="#6B6170"/>
<path d="M119.223 180.986C111.196 192.039 107.985 204.499 112.065 208.719C116.146 212.939 125.912 207.446 133.939 196.393C141.966 185.34 145.176 172.88 141.096 168.66C137.016 164.439 127.25 169.933 119.223 180.986Z" fill="#FFAB8C"/>
<path d="M814.809 419.399L681.228 395.015C666.111 392.269 651.662 402.25 648.92 417.39C646.177 432.529 656.144 446.999 671.261 449.745L807.25 450.884L814.742 419.332L814.809 419.399Z" fill="#A35A5F"/>
<path d="M592.063 264.521C592.063 264.521 451.659 317.576 562.831 408.078C587.18 427.907 644.839 429.113 644.839 429.113L591.996 264.588L592.063 264.521Z" fill="#2C2334"/>
<path d="M695.743 181.455C695.743 181.455 717.081 185.541 744.105 214.413C771.129 243.285 640.893 362.258 640.893 362.258L645.508 186.144L695.81 181.455H695.743Z" fill="#2C2334"/>
<path d="M669.656 141.462C669.656 141.462 701.964 104.618 722.098 134.16C742.299 163.703 700.292 215.82 700.292 215.82L669.656 141.462V141.462Z" fill="#2C2334"/>
<path d="M682.566 145.415C682.566 145.415 690.459 90.4167 646.713 94.1681C602.899 97.9195 578.885 181.455 578.885 181.455L682.566 145.415Z" fill="#2C2334"/>
<path d="M615.006 532.142H763.704C763.905 541.185 764.106 550.028 764.173 558.602C764.173 559.607 764.173 560.545 764.173 561.483C764.507 598.93 764.173 631.888 763.37 660.894H613.668L614.939 532.075L615.006 532.142Z" fill="#F7A9B7"/>
<path d="M599.956 532.208H710.66L714.205 660.961H565.172C563.701 621.84 572.062 581.043 599.956 532.208V532.208Z" fill="#FFB9C6"/>
<path d="M712.533 635.84H710.66V532.142H742.433V611.389C742.433 624.854 729.055 635.773 712.533 635.773V635.84Z" fill="#FFB9C6"/>
<path d="M745.109 560.076V609.916C745.109 624.519 730.995 636.51 713.336 637.247H709.924L709.79 634.434H711.596C728.118 634.434 741.563 623.448 741.563 609.916V560.076H745.109V560.076Z" fill="#DEA0AC"/>
<path d="M764.239 560.076L577.748 579.905L585.306 556.057L764.239 560.076Z" fill="#332938"/>
<path d="M619.22 471.852C628.652 440.97 588.116 367.617 588.116 367.617L579.086 294.599L601.695 273.631L605.106 270.483L611.795 264.253L615.809 260.569L622.766 254.138L674.338 254.607C674.338 254.607 686.579 264.521 701.964 279.192C704.038 281.134 706.178 283.211 708.319 285.355C715.744 292.589 723.503 300.695 730.861 309.203C733.135 311.815 735.41 314.495 737.55 317.174C752.534 335.596 764.173 354.889 764.173 370.297L766.514 560.143H582.43C582.43 560.143 616.21 481.632 619.153 471.919L619.22 471.852Z" fill="#FFB9C6"/>
<path d="M719.289 319.452L601.695 273.564L605.106 270.416L712.667 312.552L701.897 279.124C703.971 281.067 706.111 283.144 708.252 285.287L719.222 319.452H719.289Z" fill="#DEA0AC"/>
<path d="M604.036 400.575L602.498 397.025L623.234 373.177L625.776 375.254L604.036 400.575Z" fill="#DEA0AC"/>
<path d="M602.966 394.279L601.026 390.527L616.077 358.038L618.552 360.047L602.966 394.279Z" fill="#DEA0AC"/>
<path d="M707.45 594.441L706.647 591.628L757.952 582.584L758.688 585.465L707.45 594.441Z" fill="#DEA0AC"/>
<path d="M756.279 573.541H707.048V576.422H756.279V573.541Z" fill="#DEA0AC"/>
<path d="M755.878 390.393L756.748 393.207L713.068 402.183L712.199 399.37L755.878 390.393Z" fill="#DEA0AC"/>
<path d="M753.336 402.183L754.206 404.997L710.593 413.973L709.723 411.16L753.336 402.183Z" fill="#DEA0AC"/>
<path d="M688.92 468.77L689.79 471.584L655.542 481.096L654.672 478.283L688.92 468.77Z" fill="#DEA0AC"/>
<path d="M679.756 482.369L680.626 485.115L653.669 492.484L652.799 489.671L679.756 482.369Z" fill="#DEA0AC"/>
<path d="M622.698 254.071L698.887 294.264L674.271 254.54L642.766 250.453L622.698 254.071Z" fill="#A35A5F"/>
<path d="M674.606 189.761H627.849V256.348H674.606V189.761Z" fill="#A55967"/>
<path d="M674.673 225.333L641.495 221.179L674.673 241.477V225.333Z" fill="#2C2334"/>
<path d="M679.288 228.28L634.07 224.796V170.268C634.07 152.582 649.054 138.314 667.516 138.314C685.978 138.314 700.961 152.649 700.961 170.268V210.193C700.961 223.39 691.663 230.692 679.288 228.28Z" fill="#A55967"/>
<path d="M700.961 177.234V197.666C700.225 197.867 699.422 198.001 698.62 198.001C693.469 198.001 689.322 193.245 689.322 187.417C689.322 181.589 693.469 176.832 698.62 176.832C703.77 176.832 700.225 176.966 700.961 177.167V177.234Z" fill="#C75450"/>
<path d="M660.171 195.697C664.533 191.328 664.533 184.245 660.171 179.876C655.808 175.507 648.735 175.507 644.373 179.876C640.01 184.245 640.01 191.328 644.373 195.697C648.735 200.066 655.808 200.066 660.171 195.697Z" fill="#C75450"/>
<path d="M664.907 201.35L689.857 202.355C689.857 202.355 678.352 219.906 664.907 201.35Z" fill="white"/>
<path d="M659.89 181.522C661.848 181.522 663.435 179.932 663.435 177.971C663.435 176.01 661.848 174.421 659.89 174.421C657.932 174.421 656.345 176.01 656.345 177.971C656.345 179.932 657.932 181.522 659.89 181.522Z" fill="#2C2334"/>
<path d="M694.272 177.971C694.272 179.914 692.666 181.521 690.727 181.521C688.787 181.521 687.181 179.914 687.181 177.971C687.181 176.028 688.787 174.421 690.727 174.421C692.666 174.421 694.272 176.028 694.272 177.971Z" fill="#2C2334"/>
<path d="M682.432 194.45C682.232 194.45 682.098 194.45 681.897 194.45L674.272 193.982L674.74 191.168L682.365 191.637C682.365 191.57 682.767 191.101 682.767 191.101V188.287H685.576V191.101C685.643 191.905 685.309 192.91 684.573 193.58C683.971 194.182 683.235 194.45 682.432 194.45Z" fill="#2C2334"/>
<path d="M655.007 423.62H692.465L696.88 412.098L655.007 423.62Z" fill="#332938"/>
<path d="M590.658 423.754L603.3 381.618L617.347 423.754H590.658Z" fill="#332938"/>
<path d="M609.923 337.338L595.541 405.8L594.069 412.7L593.534 415.112L593.267 416.452L592.732 418.997L590.524 429.381L589.922 432.261L589.387 434.874V435.343C589.32 435.343 588.651 438.223 588.651 438.223L586.711 447.334C583.701 461.2 569.989 470.11 556.075 467.095C549.319 465.622 543.701 461.602 540.155 456.243C536.41 450.616 534.871 443.582 536.41 436.481L542.831 405.867L553.6 354.621L554.136 352.142L555.005 347.855L555.54 345.376L559.487 326.486C561.761 316.035 569.989 308.466 579.822 306.59C583.166 305.987 586.645 305.987 590.123 306.724C603.969 309.738 612.866 323.471 609.856 337.338H609.923Z" fill="#A35A5F"/>
<path d="M614.404 329.165L595.541 423.419L534.202 408.614L544.704 363.196L545.44 359.913L548.249 347.654L548.985 344.439L555.005 318.313C557.213 307.193 571.46 298.953 581.895 296.81C585.44 296.073 589.119 296.006 592.865 296.81C607.715 299.757 617.347 314.227 614.404 329.165V329.165Z" fill="#FFB9C6"/>
<path d="M570.992 349.195L570.323 352.41L548.316 347.654L549.052 344.439L570.992 349.195Z" fill="#DEA0AC"/>
<path d="M567.647 362.392L544.704 363.196L545.44 359.913L567.514 359.109L567.647 362.392Z" fill="#DEA0AC"/>
<path d="M671.529 421.945H563.701C548.383 421.945 535.941 434.405 535.941 449.745C535.941 465.086 548.383 477.546 563.701 477.546L667.516 457.114L671.596 421.878L671.529 421.945Z" fill="#A35A5F"/>
<path d="M683.636 400.039H699.422V433.735C699.422 447.133 688.519 458.052 675.141 458.052H659.355V424.356C659.355 410.959 670.258 400.039 683.636 400.039Z" fill="#A35A5F"/>
<path d="M817.753 450.951H801.966C788.588 450.951 777.685 440.032 777.685 426.634V392.939H793.471C806.849 392.939 817.753 403.858 817.753 417.256V450.951Z" fill="#A35A5F"/>
<path d="M652.599 135.567C652.599 135.567 660.826 213.743 646.177 259.028C631.528 304.379 550.456 315.968 550.456 315.968L576.009 256.482C576.009 256.482 542.831 194.852 585.574 167.186C628.317 139.52 652.532 135.567 652.532 135.567H652.599Z" fill="#2C2334"/>
<path d="M675.944 626.261L678.753 626.127L680.693 660.961H677.817L675.944 626.261Z" fill="#DEA0AC"/>
<path d="M209.692 346.649C209.826 346.114 222.535 295.269 227.753 277.584C232.769 260.502 266.148 224.864 266.482 224.529L262.603 220.844C261.198 222.318 228.02 257.755 222.602 276.11C217.385 293.862 204.608 344.908 204.475 345.377L209.692 346.649V346.649Z" fill="white"/>
<path d="M181.397 533.682H293.439L280.797 660.961H160.862L181.397 533.682Z" fill="#7D4449"/>
<path d="M239.525 533.682H243.405L230.83 660.961H227.151L239.525 533.682Z" fill="#573033"/>
<path d="M209.425 533.682H347.621L364.946 660.961H226.749L209.425 533.682Z" fill="#A35A5F"/>
<path d="M310.563 533.616H314.443L333.574 660.961H329.895L310.563 533.616Z" fill="#7D4449"/>
<path d="M179.725 533.682H209.425L226.749 660.961H207.685L179.725 533.682Z" fill="#332938"/>
<path d="M191.431 387.446L200.06 367.885L201.063 365.54L261.332 228.816L307.219 221.313L317.855 241.678L319.326 244.424L331.5 267.937L373.307 660.961H148.019L191.431 387.446Z" fill="white"/>
<path d="M240.06 610.787L242.468 608.442L294.911 660.961H290.162L240.06 610.787Z" fill="#D6C5CF"/>
<path d="M233.695 558.599L231.33 560.967L289.744 619.467L292.109 617.099L233.695 558.599Z" fill="#D6C5CF"/>
<path d="M199.458 367.282L200.06 367.885L201.665 369.359L319.326 244.424L317.855 241.678L201.063 365.54L199.458 367.282Z" fill="#D6C5CF"/>
<g style="mix-blend-mode:multiply" opacity="0.3">
<path d="M299.326 371.971L345.012 442.577L326.149 575.55L299.326 371.971Z" fill="#A35A5F"/>
</g>
<path d="M326.149 575.55H392.304L390.23 435.209L324.075 426.232L326.149 575.55Z" fill="white"/>
<path d="M283.205 157.741C298.389 157.741 310.697 145.414 310.697 130.208C310.697 115.003 298.389 102.676 283.205 102.676C268.022 102.676 255.713 115.003 255.713 130.208C255.713 145.414 268.022 157.741 283.205 157.741Z" fill="#332938"/>
<path d="M261.332 159.348V228.816C270.429 227.878 291.433 225.399 307.219 221.782V159.348H261.332V159.348Z" fill="#FF7361"/>
<path d="M261.332 192.173L289.627 188.689L261.332 205.973V192.173Z" fill="#332938"/>
<path d="M260.529 196.125L305.547 188.288V140.189C305.547 122.638 290.63 108.37 272.235 108.37C253.84 108.37 238.923 122.638 238.923 140.189V178.105C238.923 191.235 248.221 198.47 260.462 196.125H260.529Z" fill="#FF7361"/>
<path d="M280.396 167.253C285.642 167.253 289.894 162.994 289.894 157.741C289.894 152.487 285.642 148.228 280.396 148.228C275.15 148.228 270.897 152.487 270.897 157.741C270.897 162.994 275.15 167.253 280.396 167.253Z" fill="#C74E4A"/>
<path d="M308.69 150.171H289.894V115.873H300.128C304.811 115.873 308.624 119.691 308.624 124.38V150.171H308.69Z" fill="#332938"/>
<path d="M308.69 171.54C317.076 171.54 323.875 164.732 323.875 156.334C323.875 147.936 317.076 141.127 308.69 141.127C300.304 141.127 293.506 147.936 293.506 156.334C293.506 164.732 300.304 171.54 308.69 171.54Z" fill="#FF7361"/>
<g style="mix-blend-mode:multiply" opacity="0.3">
<path d="M314.31 146.352L300.53 164.506C300.53 164.506 324.678 170.87 314.31 146.352Z" fill="#A35A5F"/>
</g>
<path d="M289.961 150.171C289.961 150.171 289.827 164.306 284.342 170.536C278.857 176.765 263.138 173.818 263.138 173.818C263.138 173.818 259.392 177.971 254.041 179.11C247.82 180.45 246.749 174.153 246.749 174.153L243.94 171.54C243.94 171.54 228.555 186.881 241.733 195.053C259.459 206.04 283.205 195.388 289.961 187.752C296.717 180.182 294.844 150.171 294.844 150.171H289.961Z" fill="#332938"/>
<path d="M238.923 148.764V166.181C239.525 166.382 240.194 166.449 240.863 166.449C245.211 166.449 248.823 162.43 248.823 157.473C248.823 152.516 245.278 148.496 240.863 148.496C236.448 148.496 239.525 148.63 238.923 148.764Z" fill="#C74E4A"/>
<path d="M268.021 149.367C268.021 151.042 269.359 152.381 271.031 152.381C272.704 152.381 274.041 151.042 274.041 149.367C274.041 147.692 272.704 146.352 271.031 146.352C269.359 146.352 268.021 147.692 268.021 149.367V149.367Z" fill="#332938"/>
<path d="M241.733 149.367C241.733 151.042 243.071 152.381 244.743 152.381C246.415 152.381 247.753 151.042 247.753 149.367C247.753 147.692 246.415 146.352 244.743 146.352C243.071 146.352 241.733 147.692 241.733 149.367Z" fill="#332938"/>
<path d="M254.308 163.435C254.442 163.435 254.576 163.435 254.777 163.435H260.195V161.09H254.108C254.108 161.023 254.108 160.956 254.108 160.956V160.621C254.041 160.621 254.041 157.54 254.041 157.54H251.633V160.688C251.566 161.358 251.833 162.229 252.436 162.832C252.971 163.301 253.573 163.569 254.308 163.569V163.435Z" fill="#332938"/>
<path d="M280.73 108.303H296.45V132.687H287.286C283.673 132.687 280.663 129.739 280.663 126.055V108.303H280.73Z" fill="#332938"/>
<path d="M263.071 127.663C277.257 127.663 288.757 117.195 288.757 104.283C288.757 91.3715 277.257 80.9043 263.071 80.9043C248.885 80.9043 237.385 91.3715 237.385 104.283C237.385 117.195 248.885 127.663 263.071 127.663Z" fill="#332938"/>
<path d="M254.308 164.574C252.77 167.32 256.583 172.411 262.87 175.962C269.158 179.512 275.446 180.182 277.051 177.435C278.59 174.689 274.777 169.598 268.489 166.047C262.201 162.497 255.914 161.827 254.308 164.574V164.574Z" fill="#332938"/>
<path d="M257.385 164.573C258.857 167.186 255.312 171.875 249.358 175.158C243.472 178.44 237.452 178.976 235.913 176.431C234.442 173.818 237.987 169.129 243.94 165.846C249.827 162.564 255.847 162.028 257.385 164.573V164.573Z" fill="#332938"/>
<path d="M331.5 267.938L387.689 420.672C391.903 432.06 391.234 444.654 386.016 455.507L355.113 505.614L288.289 342.295L331.433 267.871L331.5 267.938Z" fill="white"/>
<path d="M261.332 228.816L228.354 270.55C225.612 274.033 223.538 277.986 222.334 282.206L191.431 387.446L261.332 228.816V228.816Z" fill="white"/>
<path d="M283.205 226.203L191.431 387.446L226.415 288.101L261.332 228.816L283.205 226.203Z" fill="#9B8579"/>
<path d="M264.542 228.28L267.486 241.879L253.974 248.31L214.374 347.185L191.431 387.446L220.863 303.844L251.298 247.774L250.963 246.501L261.332 228.816L264.542 228.28Z" fill="#332938"/>
<path d="M307.219 215.753L264.542 228.28L269.292 250.654L314.711 230.692L307.219 215.753Z" fill="#9B8579"/>
<path d="M261.332 228.816L248.957 249.85L246.683 247.372L261.332 228.816Z" fill="#9B8579"/>
<path d="M252.406 280.489L251.019 283.61L273.445 293.61L274.833 290.489L252.406 280.489Z" fill="#D6C5CF"/>
<path d="M205.344 414.442H195.779V417.859H205.344V414.442Z" fill="#D6C5CF"/>
<path d="M200.595 480.828H191.03V484.245H200.595V480.828Z" fill="#D6C5CF"/>
<path d="M192.769 540.448H183.203V543.865H192.769V540.448Z" fill="#D6C5CF"/>
<path d="M324.477 613.6C324.477 613.6 280.931 640.061 286.483 645.688C291.968 651.315 329.627 627.735 329.627 627.735L324.544 613.6H324.477Z" fill="#C74E4A"/>
<path d="M333.507 630.481L347.956 626.328C347.956 626.328 359.461 647.765 363.073 660.961H351.701C343.206 648.97 333.574 630.481 333.574 630.481H333.507Z" fill="#FF7361"/>
<path d="M343.005 647.095L365.681 620.433C373.508 611.256 373.173 597.59 364.879 588.814L358.056 581.58C358.056 581.58 309.627 598.997 303.138 640.597L343.005 647.095V647.095Z" fill="#FF7361"/>
<path d="M314.911 623.046L333.841 619.495C333.841 619.495 340.53 641.803 344.076 660.962H327.754C320.931 643.142 314.911 623.046 314.911 623.046V623.046Z" fill="#FF7361"/>
<path d="M303.139 640.664L318.992 633.429C318.992 633.429 322.336 646.425 325.28 660.961H306.082C303.875 652.789 302.604 645.286 303.139 640.664V640.664Z" fill="#FF7361"/>
<path d="M326.082 601.073H384.478V575.551H326.082V601.073Z" fill="#74D0E3"/>
<path d="M260.195 368.756C268.289 368.756 274.911 362.124 274.911 354.018V298.886C274.911 290.78 268.289 284.149 260.195 284.149C252.101 284.149 245.479 290.78 245.479 298.886V354.018C245.479 362.124 252.101 368.756 260.195 368.756ZM260.195 289.441C265.345 289.441 269.559 293.661 269.559 298.819V353.951C269.559 359.109 265.345 363.329 260.195 363.329C255.044 363.329 250.83 359.109 250.83 353.951V298.819C250.83 293.661 255.044 289.441 260.195 289.441V289.441Z" fill="#6B6170"/>
<path d="M264.342 370.966C267.039 370.966 269.225 368.777 269.225 366.076C269.225 363.375 267.039 361.186 264.342 361.186C261.645 361.186 259.459 363.375 259.459 366.076C259.459 368.777 261.645 370.966 264.342 370.966Z" fill="#332938"/>
<path d="M256.048 370.966C258.744 370.966 260.931 368.777 260.931 366.076C260.931 363.375 258.744 361.186 256.048 361.186C253.351 361.186 251.165 363.375 251.165 366.076C251.165 368.777 253.351 370.966 256.048 370.966Z" fill="#332938"/>
<path d="M262.803 287.364C265.011 277.986 277.453 271.89 290.563 265.392C305.078 258.224 320.062 250.855 324.677 237.658C333.775 211.533 306.884 199.14 306.617 199.006L304.409 203.896C305.346 204.298 327.085 214.413 319.594 235.85C315.714 247.037 301.734 253.87 288.155 260.569C273.84 267.602 260.328 274.301 257.519 286.091L262.737 287.297L262.803 287.364Z" fill="#6B6170"/>
<path d="M682.298 326.09L450.381 394.888L499.415 560.666L731.332 491.868L682.298 326.09Z" fill="#3B7894"/>
<path d="M421.198 479.086H590.165C590.432 489.403 590.566 499.384 590.7 509.164C590.7 510.303 590.7 511.375 590.7 512.447C591.235 571.129 590.365 620.098 588.492 660.961H419.325L421.131 479.086H421.198Z" fill="#4B91A1"/>
<path d="M404.141 479.086H529.896L534.913 660.961H368.221C359.391 605.16 364.007 549.492 404.141 479.086Z" fill="#3AA4BA"/>
<path d="M532.037 596.92H529.896V479.086H566.017V569.186C566.017 584.527 550.833 596.92 532.037 596.92Z" fill="#3AA4BA"/>
<path d="M380.194 529.864L590.901 543.463V529.663L380.194 529.864Z" fill="#332938"/>
<path d="M410.161 410.49C415.312 393.676 411.031 365.741 405.212 341.223C398.857 314.629 390.696 291.986 390.696 291.986L380.462 209.054L380.93 208.585L388.69 201.417L389.158 200.948L412.837 178.976L416.583 175.493L429.961 163.033L488.558 163.569C488.558 163.569 505.414 177.033 525.481 196.259C527.354 198.068 529.294 199.944 531.234 201.819C559.863 229.955 592.305 267.87 592.305 294.934L593.309 529.797H376.716C376.716 529.797 406.75 421.476 410.095 410.423L410.161 410.49Z" fill="#4EC1D9"/>
<path d="M432.57 509.298C432.57 515.662 429.56 522.026 423.941 525.979C415.981 531.539 405.212 530.802 398.188 524.036L312.1 422.213C307.484 417.792 304.407 412.432 302.869 406.738C301.999 403.791 301.598 400.776 301.598 397.695C301.598 387.111 306.481 376.66 315.979 369.961C331.297 359.109 352.435 362.794 363.204 378.134L364.475 380.412L367.753 386.374L370.629 391.599L371.03 392.336L373.305 396.489L428.891 497.575C431.433 501.126 432.637 505.279 432.637 509.298H432.57Z" fill="#F37453"/>
<path d="M431.299 248.644L373.371 385.034L371.9 388.517L370.562 391.666L370.294 392.269L368.823 395.752L364.074 406.872C356.916 423.82 337.317 431.725 320.394 424.49C312.099 420.94 306.012 414.442 302.802 406.738C299.39 398.7 299.189 389.388 302.802 380.747L369.96 222.519C375.378 209.791 387.686 202.221 400.596 202.221C413.506 202.221 409.359 203.092 413.64 204.901C430.563 212.135 438.456 231.696 431.232 248.644H431.299Z" fill="#F37453"/>
<path d="M445.614 241.343C445.212 245.228 444.209 249.18 442.604 252.999L441.199 256.281L405.078 341.29L387.82 381.885L316.314 345.845L341.13 287.364L343.07 282.876L349.692 267.267L351.565 262.913L369.024 221.782C370.83 217.495 373.305 213.676 376.315 210.461C379.592 206.843 383.472 203.896 387.753 201.752C388.154 201.551 388.556 201.35 389.024 201.149C394.242 198.738 399.927 197.465 405.747 197.465C411.566 197.465 416.315 198.47 421.399 200.68C437.921 207.714 447.219 224.528 445.547 241.544L445.614 241.343Z" fill="#4EC1D9"/>
<path d="M538.057 166.65L392.235 118.552L381.465 53.3049C377.786 23.3608 402.603 -2.42991 432.637 0.182661L473.708 3.73307C502.069 6.21166 524.679 28.519 527.555 56.9223L538.057 166.583V166.65Z" fill="#49485C"/>
<path d="M392.235 118.552L430.697 131.28L432.436 94.7709L388.756 97.3165L392.235 118.552Z" fill="#332938"/>
<path d="M489.246 95.1759L430.652 94.6638L430.056 162.99L488.65 163.502L489.246 95.1759Z" fill="#F37453"/>
<path d="M488.825 137.175L452.771 132.419L488.691 154.793L488.825 137.175Z" fill="#332938"/>
<path d="M500.33 44.3283C500.33 44.3283 501.133 23.1598 517.12 28.9209C533.107 34.6819 537.99 166.65 537.99 166.65L486.35 149.702L500.263 44.2613L500.33 44.3283Z" fill="#332938"/>
<path d="M418.924 3.46511C418.924 3.46511 475.848 5.87671 495.18 15.7241C514.578 25.5714 519.461 45.6011 519.461 45.6011L509.026 49.2855C509.026 49.2855 429.827 3.33113 418.924 3.46511Z" fill="#332938"/>
<path d="M489.895 138.716L432.436 131.749L433.038 62.4153C433.239 39.974 452.437 21.954 475.915 22.155C499.394 22.356 518.257 40.7109 518.056 63.1522L517.655 108.906C517.521 125.72 505.481 141.864 489.829 138.783L489.895 138.716Z" fill="#F37453"/>
<path d="M517.923 81.9762L517.722 104.149C516.919 104.417 516.05 104.484 515.18 104.484C509.561 104.484 505.079 99.2593 505.146 92.8954C505.146 86.5314 509.762 81.4403 515.381 81.5072C516.25 81.5072 517.12 81.6412 517.923 81.9092V81.9762Z" fill="#C75450"/>
<path d="M444.447 99.4164C452.022 91.8297 452.022 79.5294 444.447 71.9428C436.871 64.3561 424.589 64.3561 417.013 71.9428C409.438 79.5294 409.438 91.8297 417.013 99.4164C424.589 107.003 436.871 107.003 444.447 99.4164Z" fill="#F37453"/>
<path d="M471.199 103.882C476.992 100.464 478.922 92.9904 475.51 87.1887C472.097 81.387 464.635 79.4542 458.841 82.8716C453.048 86.2891 451.118 93.7628 454.531 99.5645C457.943 105.366 465.406 107.299 471.199 103.882Z" fill="#C75450"/>
<path d="M479.861 118.686C476.584 118.686 472.236 117.547 468.022 112.925L470.296 110.848C477.052 118.217 483.741 114.935 483.808 114.868L485.213 117.614C485.213 117.614 483.072 118.686 479.928 118.686H479.861Z" fill="#332938"/>
<path d="M477.119 82.378C477.119 84.5216 475.38 86.1964 473.239 86.1964C471.099 86.1964 469.427 84.4546 469.427 82.311C469.427 80.1674 471.166 78.4926 473.306 78.4926C475.447 78.4926 477.119 80.2343 477.119 82.378V82.378Z" fill="#332938"/>
<path d="M510.698 82.646C510.698 84.7896 508.959 86.4644 506.818 86.4644C504.678 86.4644 503.006 84.7226 503.006 82.579C503.006 80.4354 504.745 78.7606 506.885 78.7606C509.026 78.7606 510.698 80.5023 510.698 82.646Z" fill="#332938"/>
<path d="M494.511 100.532C494.31 100.532 494.109 100.532 493.909 100.532L485.413 99.0582L485.949 96.0437L494.444 97.5175L496.384 96.9146L494.979 98.1204L493.708 90.4836L496.785 90.1487L497.922 96.7806C498.056 97.8524 497.654 98.9242 496.852 99.6611C496.183 100.264 495.38 100.599 494.511 100.599V100.532Z" fill="#332938"/>
<path d="M505.146 33.6101C505.146 33.6101 466.283 28.184 462.136 62.2144V70.521L461.935 129.203L442.67 122.839L439.527 121.768L420.864 115.605L417.787 114.6L395.044 107.03L391.833 106.025L381.198 102.475C381.198 102.475 377.184 83.6508 376.382 62.3483C376.382 61.0755 376.315 59.8697 376.315 58.597C375.847 32.5383 380.796 4.40292 404.208 3.39809C404.208 3.39809 411.499 3.53206 421.867 4.20195C423.005 4.26894 424.142 4.40292 425.346 4.46991C428.356 4.67088 431.567 4.93883 434.844 5.27378C435.914 5.34077 436.918 5.47474 438.055 5.54173C443.607 6.14463 449.493 6.88151 455.179 7.75237C456.316 7.95333 457.386 8.1543 458.457 8.28828C460.932 8.69021 463.34 9.15913 465.681 9.69504C466.952 9.963 468.223 10.231 469.427 10.5659C476.116 12.1736 482.002 14.1163 486.484 16.5279C497.655 22.5569 504.21 32.0693 505.08 33.3421C505.147 33.4091 505.146 33.4761 505.146 33.4761V33.6101Z" fill="#49485C"/>
<path d="M462.202 62.2144V70.521C462.202 70.521 462.069 67.1716 462.202 62.2144Z" fill="#332938"/>
<path d="M505.146 33.6101C505.146 33.6101 466.216 28.184 462.136 62.2144C462.47 50.1563 464.677 28.6529 475.179 23.9637C489.226 17.7337 503.541 32.0024 505.013 33.4761C506.484 34.9499 505.146 33.6101 505.146 33.6101V33.6101Z" fill="#332938"/>
<path d="M429.961 163.1L516.585 208.719L488.624 163.636L452.771 158.946L429.961 163.1Z" fill="#F37453"/>
<path d="M679.167 489.462L693.06 512.987L658.975 533.175C648.381 539.449 634.637 535.915 628.372 525.306L614.479 501.78L648.564 481.593C659.158 475.319 672.902 478.853 679.167 489.462Z" fill="#F37453"/>
<path d="M457.165 503.053L471.058 526.579L436.973 546.766C426.379 553.04 412.635 549.506 406.37 538.897L392.477 515.372L426.562 495.184C437.156 488.91 450.9 492.444 457.165 503.053Z" fill="#F37453"/>
<path d="M469.427 10.6999C465.815 13.8484 463.273 18.2697 460.998 22.624C455.513 33.4762 451.366 44.9313 448.757 56.7883C445.078 73.2006 444.276 90.4837 443.473 107.164C443.205 112.389 442.938 117.614 442.67 122.906L439.526 121.835C439.794 116.877 440.062 111.853 440.329 106.963C441.132 90.1488 441.935 72.7987 445.614 56.1184C448.289 43.9934 452.57 32.2704 458.189 21.1502C460.196 17.1309 462.47 13.1115 465.681 9.82907C466.952 10.097 468.223 10.365 469.427 10.6999V10.6999Z" fill="#332938"/>
<path d="M458.457 8.42222C452.37 22.1549 447.286 36.4906 442.269 50.4243C436.918 65.3628 431.366 80.8372 426.349 96.2447C424.142 102.743 422.135 109.241 420.864 115.671L417.787 114.667C419.125 108.169 421.199 101.738 423.339 95.2399C428.423 79.8324 433.908 64.358 439.259 49.3524C444.142 35.6867 449.159 21.552 455.179 7.95329C456.316 8.15426 457.386 8.35523 458.457 8.4892V8.42222Z" fill="#332938"/>
<path d="M437.988 5.60876C436.985 22.7579 432.169 40.711 423.74 59.1329C415.713 76.55 405.145 92.8283 395.044 107.097L391.833 106.092C402.068 91.7565 412.77 75.2772 420.864 57.7931C429.159 39.7061 433.841 22.155 434.844 5.34081C435.915 5.40779 436.918 5.54177 438.055 5.60876H437.988Z" fill="#332938"/>
<path d="M425.279 4.53697C417.586 22.8919 405.279 39.6392 390.027 52.3001C385.68 55.9175 380.997 59.2669 376.382 62.4154C376.382 61.1426 376.315 59.9368 376.315 58.664C380.328 55.9175 384.275 52.97 388.021 49.8885C402.603 37.7635 414.376 21.8201 421.867 4.26901C423.005 4.336 424.142 4.46998 425.346 4.53697H425.279Z" fill="#332938"/>
<path d="M405.145 341.223L422.536 297.881L433.975 313.758L405.145 341.223Z" fill="#3AA4BA"/>
<path d="M377.184 274.167L375.244 278.522L349.759 267.2L351.632 262.846L377.184 274.167Z" fill="#3AA4BA"/>
<path d="M369.291 287.23L368.488 291.919L341.264 287.297L343.137 282.809L369.291 287.23Z" fill="#3AA4BA"/>
<path d="M445.413 257.554L441.266 256.281L440.864 256.147C441.132 255.343 446.617 235.85 424.811 214.48C411.633 201.551 393.305 204.432 380.93 208.652C379.325 209.188 377.786 209.791 376.382 210.327C379.659 206.71 383.539 203.762 387.82 201.618C388.088 201.618 388.355 201.484 388.623 201.484C401.064 198.872 416.182 199.408 428.088 211.064C439.46 222.184 444.008 232.969 445.547 241.41C447.353 250.721 445.48 257.085 445.279 257.554H445.413Z" fill="#3AA4BA"/>
<path d="M537.053 236.921L412.837 179.043L416.583 175.56L530.899 228.816L525.548 196.326C527.421 198.135 529.361 200.011 531.301 201.886L537.12 236.854L537.053 236.921Z" fill="#3AA4BA"/>
<path d="M559.835 343.478L535.938 388.111L540.124 390.358L564.02 345.726L559.835 343.478Z" fill="#3AA4BA"/>
<path d="M559.85 373.336L527.758 438.079L532.012 440.194L564.104 375.451L559.85 373.336Z" fill="#3AA4BA"/>
<path d="M450.162 581.647L454.911 581.379L459.125 660.961H454.376L450.162 581.647Z" fill="#4B91A1"/>
<path d="M485.013 281.67C486.551 281.67 487.755 282.943 487.755 284.417V305.987C487.755 307.528 486.484 308.734 485.013 308.734C483.541 308.734 482.27 307.461 482.27 305.987V284.417C482.27 282.876 483.541 281.67 485.013 281.67ZM485.013 278.455C481.735 278.455 479.059 281.134 479.059 284.417V305.987C479.059 309.27 481.735 311.949 485.013 311.949C488.29 311.949 490.966 309.27 490.966 305.987V284.417C490.966 281.134 488.29 278.455 485.013 278.455Z" fill="white"/>
<path d="M489.427 273.095C489.427 275.507 487.488 277.517 485.013 277.517C482.538 277.517 480.598 275.574 480.598 273.095C480.598 270.617 482.538 268.674 485.013 268.674C487.488 268.674 489.427 270.617 489.427 273.095Z" fill="white"/>
<path d="M498.658 289.642C500.197 289.642 501.401 290.914 501.401 292.388V299.891C501.401 301.432 500.13 302.637 498.658 302.637C497.187 302.637 495.916 301.365 495.916 299.891V292.388C495.916 290.847 497.187 289.642 498.658 289.642ZM498.658 286.426C495.381 286.426 492.705 289.106 492.705 292.388V299.891C492.705 303.173 495.381 305.853 498.658 305.853C501.936 305.853 504.612 303.173 504.612 299.891V292.388C504.612 289.106 501.936 286.426 498.658 286.426Z" fill="white"/>
<path d="M503.006 280.732C503.006 283.144 501.066 285.154 498.591 285.154C496.116 285.154 494.177 283.211 494.177 280.732C494.177 278.254 496.116 276.311 498.591 276.311C501.066 276.311 503.006 278.254 503.006 280.732Z" fill="white"/>
<path d="M471.501 289.642C473.039 289.642 474.243 290.914 474.243 292.388V299.891C474.243 301.432 472.972 302.637 471.501 302.637C470.029 302.637 468.758 301.365 468.758 299.891V292.388C468.758 290.847 470.029 289.642 471.501 289.642ZM471.501 286.426C468.223 286.426 465.547 289.106 465.547 292.388V299.891C465.547 303.173 468.223 305.853 471.501 305.853C474.778 305.853 477.454 303.173 477.454 299.891V292.388C477.454 289.106 474.778 286.426 471.501 286.426Z" fill="white"/>
<path d="M475.848 280.732C475.848 283.144 473.909 285.154 471.434 285.154C468.959 285.154 467.019 283.211 467.019 280.732C467.019 278.254 468.959 276.311 471.434 276.311C473.909 276.311 475.848 278.254 475.848 280.732Z" fill="white"/>
</svg>
