<svg width="305" height="60" viewBox="0 0 305 60" fill="none" xmlns="http://www.w3.org/2000/svg">
<path d="M89.405 16.3415H83.8019V43.6585H89.405V16.3415Z" fill="#00837B"/>
<path d="M102.316 44.1463C96.226 44.1463 91.5974 39.5122 91.5974 33.9024C91.5974 28.0488 96.226 23.4146 102.56 23.4146C108.65 23.4146 113.279 28.0488 113.279 33.6585C113.279 39.5122 108.65 44.1463 102.316 44.1463ZM107.676 33.6585C107.676 30.7317 105.483 28.0488 102.316 28.0488C99.1494 28.0488 97.2005 30.4878 97.2005 33.4146C97.2005 36.3415 99.393 39.0244 102.56 39.0244C105.727 39.2683 107.676 36.8293 107.676 33.6585Z" fill="#00837B"/>
<path d="M124.485 44.1463C118.395 44.1463 114.01 39.5122 114.01 33.9024C114.01 28.2927 118.395 23.4146 124.485 23.4146C128.139 23.4146 130.575 24.6341 132.524 26.8293L129.113 30.4878C127.895 29.0244 126.677 28.2927 124.485 28.2927C121.562 28.2927 119.613 30.7317 119.613 33.6585C119.613 36.8293 121.562 39.2683 124.728 39.2683C126.677 39.2683 127.895 38.5366 129.357 37.0732L132.768 40.4878C130.819 42.6829 128.383 44.1463 124.485 44.1463Z" fill="#00837B"/>
<path d="M146.653 43.6585V40.7317C145.435 42.439 143.73 43.9024 140.807 43.9024C136.422 43.9024 133.986 40.9756 133.986 36.5854V23.6585H139.589V34.8781C139.589 37.561 140.807 39.0244 142.999 39.0244C145.192 39.0244 146.653 37.561 146.653 34.8781V23.6585H152.256V43.6585H146.653Z" fill="#00837B"/>
<path d="M180.028 43.6585V32.439C180.028 29.7561 178.81 28.2927 176.617 28.2927C174.425 28.2927 173.207 29.7561 173.207 32.439V43.6585H167.604V32.439C167.604 29.7561 166.386 28.2927 164.193 28.2927C162.001 28.2927 160.783 29.7561 160.783 32.439V43.6585H155.18V23.6585H160.783V26.5854C162.001 24.878 163.706 23.4146 166.629 23.4146C169.309 23.4146 171.258 24.6341 172.232 26.5854C173.938 24.6341 176.13 23.4146 178.81 23.4146C182.951 23.4146 185.631 25.8537 185.631 30.7317V43.6585H180.028Z" fill="#00837B"/>
<path d="M200.248 44.1463C197.324 44.1463 195.375 42.6829 193.914 41.2195V49.7561H188.311V23.6585H193.914V26.5854C195.375 24.6341 197.081 23.4146 200.248 23.4146C204.876 23.4146 209.261 27.0732 209.261 33.6585C209.261 40.4878 204.876 44.1463 200.248 44.1463ZM203.658 33.6585C203.658 30.2439 201.466 28.0488 198.786 28.0488C196.106 28.0488 193.914 30.2439 193.914 33.6585C193.914 37.0732 196.106 39.2683 198.786 39.2683C201.466 39.2683 203.658 37.0732 203.658 33.6585Z" fill="#878787"/>
<path d="M229.724 35.6098H215.839C216.326 38.2927 218.275 39.5122 220.711 39.5122C222.66 39.5122 223.878 39.0244 225.583 37.561L228.75 40.4878C226.801 42.6829 224.121 44.1463 220.467 44.1463C214.377 44.1463 209.992 40 209.992 33.9024C209.992 28.2927 214.133 23.4146 219.98 23.4146C226.558 23.4146 229.724 28.5366 229.724 34.3902C229.968 34.8781 229.968 35.122 229.724 35.6098ZM220.224 27.8049C217.788 27.8049 216.326 29.5122 215.839 31.9512H224.365C224.121 29.5122 222.66 27.8049 220.224 27.8049Z" fill="#878787"/>
<path d="M241.661 44.1463C235.571 44.1463 230.943 39.5122 230.943 33.9024C230.943 28.0488 235.571 23.4146 241.905 23.4146C247.995 23.4146 252.624 28.0488 252.624 33.6585C252.624 39.5122 247.995 44.1463 241.661 44.1463ZM247.021 33.6585C247.021 30.7317 244.828 28.0488 241.661 28.0488C238.494 28.0488 236.546 30.4878 236.546 33.4146C236.546 36.3415 238.738 39.0244 241.905 39.0244C245.072 39.2683 247.021 36.8293 247.021 33.6585Z" fill="#878787"/>
<path d="M266.266 44.1463C263.343 44.1463 261.394 42.6829 259.932 41.2195V49.7561H254.329V23.6585H259.932V26.5854C261.394 24.6341 263.099 23.4146 266.266 23.4146C270.895 23.4146 275.28 27.0732 275.28 33.6585C275.523 40.4878 271.138 44.1463 266.266 44.1463ZM269.677 33.6585C269.677 30.2439 267.484 28.0488 264.804 28.0488C262.125 28.0488 259.932 30.2439 259.932 33.6585C259.932 37.0732 262.125 39.2683 264.804 39.2683C267.484 39.2683 269.677 37.0732 269.677 33.6585Z" fill="#878787"/>
<path d="M283.319 16.3415H277.716V43.6585H283.319V16.3415Z" fill="#878787"/>
<path d="M305 35.6098H291.114C291.601 38.2927 293.55 39.5122 295.986 39.5122C297.935 39.5122 299.153 39.0244 300.859 37.561L304.026 40.4878C302.077 42.6829 299.397 44.1463 295.743 44.1463C289.653 44.1463 285.268 40 285.268 33.9024C285.268 28.2927 289.409 23.4146 295.256 23.4146C301.833 23.4146 305 28.5366 305 34.3902C305 34.8781 305 35.122 305 35.6098ZM295.256 27.8049C292.819 27.8049 291.358 29.5122 290.871 31.9512H299.397C299.153 29.5122 297.692 27.8049 295.256 27.8049Z" fill="#878787"/>
<path d="M27.0407 18.0488C29.2332 18.0488 30.9385 19.7561 30.9385 21.9512V51.7073C30.9385 53.9024 29.2332 55.6098 27.0407 55.6098C24.8482 55.6098 23.143 53.9024 23.143 51.7073V21.7073C23.143 19.7561 24.8482 18.0488 27.0407 18.0488ZM27.0407 13.6585C22.4121 13.6585 18.758 17.3171 18.758 21.9512V51.7073C18.758 56.3415 22.4121 60 27.0407 60C31.6693 60 35.3235 56.3415 35.3235 51.7073V21.7073C35.3235 17.3171 31.4257 13.6585 27.0407 13.6585Z" fill="#00837B"/>
<path d="M33.131 6.09756C33.131 9.5122 30.4513 12.1951 27.0407 12.1951C23.6302 12.1951 20.9505 9.5122 20.9505 6.09756C20.9505 2.68293 23.6302 0 27.0407 0C30.4513 0 33.131 2.68293 33.131 6.09756Z" fill="#00837B"/>
<path d="M45.7987 29.0244C47.9912 29.0244 49.6965 30.7317 49.6965 32.9268V43.4146C49.6965 45.6098 47.9912 47.3171 45.7987 47.3171C43.6062 47.3171 41.901 45.6098 41.901 43.4146V32.9268C41.901 30.7317 43.6062 29.0244 45.7987 29.0244ZM45.7987 24.6341C41.1701 24.6341 37.516 28.2927 37.516 32.9268V43.4146C37.516 48.0488 41.1701 51.7073 45.7987 51.7073C50.4273 51.7073 54.0815 48.0488 54.0815 43.4146V32.9268C54.0815 28.2927 50.4273 24.6341 45.7987 24.6341Z" fill="#878787"/>
<path d="M51.889 16.8293C51.889 20.2439 49.2093 22.9268 45.7987 22.9268C42.3882 22.9268 39.7085 20.2439 39.7085 16.8293C39.7085 13.4146 42.3882 10.7317 45.7987 10.7317C49.2093 10.7317 51.889 13.4146 51.889 16.8293Z" fill="#878787"/>
<path d="M8.28275 29.0244C10.4752 29.0244 12.1805 30.7317 12.1805 32.9268V43.4146C12.1805 45.6098 10.4752 47.3171 8.28275 47.3171C6.09026 47.3171 4.38498 45.6098 4.38498 43.4146V32.9268C4.38498 30.7317 6.09026 29.0244 8.28275 29.0244ZM8.28275 24.6341C3.65415 24.6341 0 28.2927 0 32.9268V43.4146C0 48.0488 3.65415 51.7073 8.28275 51.7073C12.9113 51.7073 16.5655 48.0488 16.5655 43.4146V32.9268C16.5655 28.2927 12.6677 24.6341 8.28275 24.6341Z" fill="#878787"/>
<path d="M14.373 16.8293C14.373 20.2439 11.6933 22.9268 8.28275 22.9268C4.87221 22.9268 2.19249 20 2.19249 16.8293C2.19249 13.4146 4.87221 10.7317 8.28275 10.7317C11.6933 10.7317 14.373 13.4146 14.373 16.8293Z" fill="#878787"/>
</svg>
